<?xml version="1.0" encoding="UTF-8"?>
<svg width="200" height="200" viewBox="0 0 200 200" fill="none" xmlns="http://www.w3.org/2000/svg">
  <defs>
    <linearGradient id="grad2" x1="0%" y1="0%" x2="100%" y2="100%">
      <stop offset="0%" style="stop-color:#ddd6fe;stop-opacity:1" />
      <stop offset="100%" style="stop-color:#a78bfa;stop-opacity:1" />
    </linearGradient>
    <filter id="glow2">
      <feGaussianBlur stdDeviation="3" result="coloredBlur"/>
      <feMerge>
        <feMergeNode in="coloredBlur"/>
        <feMergeNode in="SourceGraphic"/>
      </feMerge>
    </filter>
  </defs>
  
  <!-- Fragment de base -->
  <path d="M100 20C140 20 180 60 180 100C180 140 140 180 100 180C60 180 20 140 20 100C20 60 60 20 100 20Z" 
        fill="url(#grad2)" 
        stroke="#5b21b6" 
        stroke-width="2"
        filter="url(#glow2)"/>
  
  <!-- Motif Yin-Yang modifié -->
  <path d="M100 40C120 40 140 60 140 80C140 100 120 120 100 120C80 120 60 100 60 80C60 60 80 40 100 40Z" 
        fill="#5b21b6" 
        opacity="0.2"/>
  <path d="M100 120C120 120 140 140 140 160C140 180 120 200 100 200C80 200 60 180 60 160C60 140 80 120 100 120Z" 
        fill="#5b21b6" 
        opacity="0.2"/>
  
  <!-- Symbole du chiffre 2 -->
  <path d="M85 70C85 60 95 55 100 55C105 55 115 60 115 70C115 85 85 100 85 115C85 120 90 125 100 125C110 125 115 120 115 115" 
        stroke="#5b21b6" 
        stroke-width="3" 
        stroke-linecap="round" 
        fill="none"/>
  
  <!-- Points lumineux -->
  <circle cx="100" cy="40" r="3" fill="white" filter="url(#glow2)"/>
  <circle cx="160" cy="100" r="3" fill="white" filter="url(#glow2)"/>
  <circle cx="100" cy="160" r="3" fill="white" filter="url(#glow2)"/>
  <circle cx="40" cy="100" r="3" fill="white" filter="url(#glow2)"/>
</svg> 