<?xml version="1.0" encoding="UTF-8"?>
<svg width="200" height="200" viewBox="0 0 200 200" fill="none" xmlns="http://www.w3.org/2000/svg">
  <defs>
    <linearGradient id="gradP" x1="0%" y1="0%" x2="100%" y2="100%">
      <stop offset="0%" style="stop-color:#fef3c7;stop-opacity:1" />
      <stop offset="100%" style="stop-color:#fbbf24;stop-opacity:1" />
    </linearGradient>
    <filter id="glowP">
      <feGaussianBlur stdDeviation="3" result="coloredBlur"/>
      <feMerge>
        <feMergeNode in="coloredBlur"/>
        <feMergeNode in="SourceGraphic"/>
      </feMerge>
    </filter>
  </defs>
  
  <!-- Fragment de base (cercle parfait) -->
  <circle cx="100" cy="100" r="80"
        fill="url(#gradP)" 
        stroke="#92400e" 
        stroke-width="2"
        filter="url(#glowP)"/>
  
  <!-- Motif de l'infini -->
  <path d="M60 100C60 85 75 85 75 100C75 115 60 115 60 100M140 100C140 85 125 85 125 100C125 115 140 115 140 100M75 100L125 100"
        fill="none" 
        stroke="#92400e" 
        stroke-width="2"/>
  
  <!-- Symbole de perfection (spirale) -->
  <path d="M100 100C100 90 110 90 110 100C110 120 90 120 90 100C90 70 120 70 120 100C120 140 80 140 80 100"
        fill="none" 
        stroke="#92400e" 
        stroke-width="2"
        transform="rotate(45 100 100)"/>
  
  <!-- Points lumineux en hexagone -->
  <circle cx="100" cy="26" r="3" fill="white" filter="url(#glowP)"/>
  <circle cx="160" cy="60" r="3" fill="white" filter="url(#glowP)"/>
  <circle cx="160" cy="140" r="3" fill="white" filter="url(#glowP)"/>
  <circle cx="100" cy="175" r="3" fill="white" filter="url(#glowP)"/>
  <circle cx="39" cy="140" r="3" fill="white" filter="url(#glowP)"/>
  <circle cx="36" cy="62" r="3" fill="white" filter="url(#glowP)"/>
</svg>