<?xml version="1.0" encoding="UTF-8"?>
<svg width="200" height="200" viewBox="0 0 200 200" fill="none" xmlns="http://www.w3.org/2000/svg">
  <defs>
    <linearGradient id="grad2" x1="0%" y1="0%" x2="100%" y2="100%">
      <stop offset="0%" style="stop-color:#ddd6fe;stop-opacity:1" />
      <stop offset="100%" style="stop-color:#a78bfa;stop-opacity:1" />
    </linearGradient>
    <filter id="glow2">
      <feGaussianBlur stdDeviation="3" result="coloredBlur"/>
      <feMerge>
        <feMergeNode in="coloredBlur"/>
        <feMergeNode in="SourceGraphic"/>
      </feMerge>
    </filter>
  </defs>
  
  <!-- Fragment principal -->
  <path d="M100 20C140 20 180 60 180 100C180 140 140 180 100 180C60 180 20 140 20 100C20 60 60 20 100 20Z" 
        fill="url(#grad2)" 
        stroke="#5b21b6" 
        stroke-width="2"
        filter="url(#glow2)"/>
  
  <!-- Lignes de duo -->
  <path d="M60 80L140 80M60 120L140 120" 
        stroke="#5b21b6" 
        stroke-width="2" 
        stroke-linecap="round"
        opacity="0.3"/>
  
  <!-- Symboles de duo -->
  <circle cx="80" cy="100" r="15" fill="#5b21b6" opacity="0.2"/>
  <circle cx="120" cy="100" r="15" fill="#5b21b6" opacity="0.2"/>
  
  <!-- Points d'énergie -->
  <circle cx="100" cy="40" r="3" fill="white" filter="url(#glow2)"/>
  <circle cx="160" cy="100" r="3" fill="white" filter="url(#glow2)"/>
  <circle cx="100" cy="160" r="3" fill="white" filter="url(#glow2)"/>
  <circle cx="40" cy="100" r="3" fill="white" filter="url(#glow2)"/>
  
  <!-- Symbole de connexion -->
  <path d="M90 100C90 95 95 90 100 90C105 90 110 95 110 100C110 105 105 110 100 110C95 110 90 105 90 100Z"
        stroke="#5b21b6"
        stroke-width="2"
        fill="none"/>
</svg>