<?xml version="1.0" encoding="UTF-8"?>
<svg width="200" height="200" viewBox="0 0 200 200" fill="none" xmlns="http://www.w3.org/2000/svg">
  <defs>
    <linearGradient id="grad8" x1="0%" y1="0%" x2="100%" y2="100%">
      <stop offset="0%" style="stop-color:#fdba74;stop-opacity:1" />
      <stop offset="100%" style="stop-color:#f97316;stop-opacity:1" />
    </linearGradient>
    <filter id="glow8">
      <feGaussianBlur stdDeviation="3" result="coloredBlur"/>
      <feMerge>
        <feMergeNode in="coloredBlur"/>
        <feMergeNode in="SourceGraphic"/>
      </feMerge>
    </filter>
  </defs>
  
  <!-- Fragment de base (octogone) -->
  <path d="M100 20L155 35L180 80L180 120L155 165L100 180L45 165L20 120L20 80L45 35L100 20Z" 
        fill="url(#grad8)" 
        stroke="#7c2d12" 
        stroke-width="2"
        filter="url(#glow8)"/>
  
  <!-- Motifs octogonaux intérieurs -->
  <path d="M100 40L140 50L160 85L160 115L140 150L100 160L60 150L40 115L40 85L60 50L100 40Z" 
        fill="none" 
        stroke="#7c2d12" 
        stroke-width="2"/>
  <path d="M100 60L125 70L140 90L140 110L125 130L100 140L75 130L60 110L60 90L75 70L100 60Z" 
        fill="none" 
        stroke="#7c2d12" 
        stroke-width="2"/>
  
  <!-- Symbole de l'infini (pour 8) -->
  <path d="M80 90C80 80 90 80 95 90C100 100 100 100 105 90C110 80 120 80 120 90C120 100 110 100 105 90C100 80 100 80 95 90C90 100 80 100 80 90Z" 
        stroke="#7c2d12" 
        stroke-width="3" 
        stroke-linecap="round" 
        fill="none"/>
  
  <!-- Points lumineux -->
  <circle cx="100" cy="30" r="3" fill="white" filter="url(#glow8)"/>
  <circle cx="150" cy="45" r="3" fill="white" filter="url(#glow8)"/>
  <circle cx="170" cy="85" r="3" fill="white" filter="url(#glow8)"/>
  <circle cx="170" cy="115" r="3" fill="white" filter="url(#glow8)"/>
  <circle cx="150" cy="155" r="3" fill="white" filter="url(#glow8)"/>
  <circle cx="100" cy="170" r="3" fill="white" filter="url(#glow8)"/>
  <circle cx="50" cy="155" r="3" fill="white" filter="url(#glow8)"/>
  <circle cx="30" cy="115" r="3" fill="white" filter="url(#glow8)"/>
</svg> 