<svg width="400" height="300" viewBox="0 0 400 300" xmlns="http://www.w3.org/2000/svg">
  <defs>
    <linearGradient id="cuirTexture" x1="0%" y1="0%" x2="100%" y2="0%">
      <stop offset="0%" style="stop-color:#3d2b1f"/>
      <stop offset="50%" style="stop-color:#5c3c24"/>
      <stop offset="100%" style="stop-color:#3d2b1f"/>
    </linearGradient>
    
    <linearGradient id="semelle" x1="0%" y1="0%" x2="0%" y2="100%">
      <stop offset="0%" style="stop-color:#2a1810"/>
      <stop offset="100%" style="stop-color:#1a0f0a"/>
    </linearGradient>
  </defs>

  <!-- Botte gauche -->
  <g transform="translate(50,50)">
    <!-- Corps de la botte -->
    <path d="M 20,180 
             L 20,80 
             C 20,40 40,20 80,20 
             L 100,20 
             C 120,20 130,40 130,60
             L 130,180
             L 20,180
             Z" 
          fill="url(#cuirTexture)" 
          stroke="#2a1810" 
          stroke-width="3"/>
    
    <!-- Semelle -->
    <path d="M 10,180 
             L 140,180
             L 130,190 
             C 120,195 40,195 30,190
             Z" 
          fill="url(#semelle)" 
          stroke="#1a0f0a" 
          stroke-width="2"/>
    
    <!-- Coutures -->
    <path d="M 20,120 L 130,120" stroke="#2a1810" stroke-width="2" stroke-dasharray="5,5"/>
    <path d="M 50,20 L 50,120" stroke="#2a1810" stroke-width="2" stroke-dasharray="5,5"/>
    
    <!-- Lacets -->
    <path d="M 70,40 L 110,40" stroke="#1a0f0a" stroke-width="3"/>
    <path d="M 70,60 L 110,60" stroke="#1a0f0a" stroke-width="3"/>
    <path d="M 70,80 L 110,80" stroke="#1a0f0a" stroke-width="3"/>
  </g>

  <!-- Botte droite -->
  <g transform="translate(220,50)">
    <!-- Corps de la botte -->
    <path d="M 20,180 
             L 20,80 
             C 20,40 40,20 80,20 
             L 100,20 
             C 120,20 130,40 130,60
             L 130,180
             L 20,180
             Z" 
          fill="url(#cuirTexture)" 
          stroke="#2a1810" 
          stroke-width="3"/>
    
    <!-- Semelle -->
    <path d="M 10,180 
             L 140,180
             L 130,190 
             C 120,195 40,195 30,190
             Z" 
          fill="url(#semelle)" 
          stroke="#1a0f0a" 
          stroke-width="2"/>
    
    <!-- Coutures -->
    <path d="M 20,120 L 130,120" stroke="#2a1810" stroke-width="2" stroke-dasharray="5,5"/>
    <path d="M 50,20 L 50,120" stroke="#2a1810" stroke-width="2" stroke-dasharray="5,5"/>
    
    <!-- Lacets -->
    <path d="M 70,40 L 110,40" stroke="#1a0f0a" stroke-width="3"/>
    <path d="M 70,60 L 110,60" stroke="#1a0f0a" stroke-width="3"/>
    <path d="M 70,80 L 110,80" stroke="#1a0f0a" stroke-width="3"/>
  </g>
</svg>