<?xml version="1.0" encoding="UTF-8"?>
<svg width="200" height="200" viewBox="0 0 200 200" xmlns="http://www.w3.org/2000/svg">
  <!-- Définition des gradients -->
  <defs>
    <linearGradient id="cape" x1="0%" y1="0%" x2="100%" y2="100%">
      <stop offset="0%" style="stop-color:#E0FFFF"/>
      <stop offset="50%" style="stop-color:#B0E0E6"/>
      <stop offset="100%" style="stop-color:#87CEEB"/>
    </linearGradient>
    <radialGradient id="givre" cx="50%" cy="50%" r="50%" fx="50%" fy="50%">
      <stop offset="0%" style="stop-color:#FFFFFF;stop-opacity:0.8"/>
      <stop offset="100%" style="stop-color:#E0FFFF;stop-opacity:0"/>
    </radialGradient>
    <filter id="flou-glace">
      <feGaussianBlur in="SourceGraphic" stdDeviation="1"/>
    </filter>
  </defs>

  <!-- Corps de la cape -->
  <path d="M60 40 Q100 30 140 40 L160 180 L40 180 Z" 
        fill="url(#cape)" stroke="#B0E0E6" stroke-width="2"/>
  
  <!-- Col de la cape -->
  <path d="M70 40 Q100 35 130 40 Q100 50 70 40" 
        fill="#E0FFFF" stroke="#B0E0E6" stroke-width="2"/>
  
  <!-- Motifs de givre -->
  <path d="M70 60 Q100 70 130 60" 
        fill="none" stroke="#FFFFFF" stroke-width="2" filter="url(#flou-glace)">
    <animate attributeName="opacity" values="0.8;0.3;0.8" dur="3s" repeatCount="indefinite"/>
  </path>
  <path d="M60 100 Q100 110 140 100" 
        fill="none" stroke="#FFFFFF" stroke-width="2" filter="url(#flou-glace)">
    <animate attributeName="opacity" values="0.8;0.3;0.8" dur="3s" repeatCount="indefinite"/>
  </path>
  
  <!-- Flocons de neige -->
  <g id="flocon">
    <path d="M0 0 L6 0 M3 -3 L3 3 M1 -1 L5 3 M1 3 L5 -1" 
          stroke="#FFFFFF" stroke-width="1" transform="translate(80,90)"/>
  </g>
  <use href="#flocon" transform="translate(120,70)"/>
  <use href="#flocon" transform="translate(90,130)"/>
  <use href="#flocon" transform="translate(130,150)"/>
  
  <!-- Effet de brillance -->
  <circle cx="90" cy="80" r="5" fill="url(#givre)">
    <animate attributeName="opacity" values="0.8;0.2;0.8" dur="2s" repeatCount="indefinite"/>
  </circle>
  <circle cx="120" cy="120" r="5" fill="url(#givre)">
    <animate attributeName="opacity" values="0.8;0.2;0.8" dur="2s" repeatCount="indefinite"/>
  </circle>
  
  <!-- Aura glacée -->
  <circle cx="100" cy="110" r="50" fill="url(#givre)" opacity="0.3">
    <animate attributeName="r" values="50;55;50" dur="4s" repeatCount="indefinite"/>
  </circle>
</svg> 