<?xml version="1.0" encoding="UTF-8"?>
<svg viewBox="0 0 200 200" xmlns="http://www.w3.org/2000/svg">
  <!-- Ciel -->
  <defs>
    <linearGradient id="skyGradient" x1="0" y1="0" x2="0" y2="1">
      <stop offset="0%" stop-color="#87CEEB"/>
      <stop offset="100%" stop-color="#B0E2FF"/>
    </linearGradient>
  </defs>
  <rect width="200" height="200" fill="url(#skyGradient)"/>

  <!-- Soleil -->
  <circle cx="40" cy="40" r="20" fill="#FFD700"/>
  <circle cx="40" cy="40" r="25" fill="#FFD700" opacity="0.3"/>

  <!-- Collines -->
  <path d="M0 100 Q50 60 100 100 T200 100 V200 H0 Z" fill="#8B4513"/>
  <path d="M-20 120 Q50 80 100 120 T220 120 V200 H-20 Z" fill="#90BD90"/>
  <path d="M-20 150 Q50 110 100 150 T220 150 V200 H-20 Z" fill="#7AB07A"/>

  <!-- Moulins -->
  <g transform="translate(50, 90)">
    <!-- Base du moulin -->
    <path d="M-10 0 L10 0 L8 30 L-8 30 Z" fill="#8B4513"/>
    <!-- Ailes du moulin -->
    <g transform="translate(0, 0)">
      <rect x="-2" y="-20" width="4" height="40" fill="#5D4037" transform="rotate(45)"/>
      <rect x="-2" y="-20" width="4" height="40" fill="#5D4037" transform="rotate(-45)"/>
    </g>
  </g>

  <g transform="translate(150, 80)">
    <!-- Base du moulin -->
    <path d="M-12 0 L12 0 L10 40 L-10 40 Z" fill="#8B4513"/>
    <!-- Ailes du moulin -->
    <g transform="translate(0, 0)">
      <rect x="-2" y="-25" width="4" height="50" fill="#5D4037" transform="rotate(15)"/>
      <rect x="-2" y="-25" width="4" height="50" fill="#5D4037" transform="rotate(-75)"/>
    </g>
  </g>

  <!-- Nuages -->
  <path d="M20 30 Q30 25 40 30 T60 30 T80 30" fill="white" opacity="0.8"/>
  <path d="M120 50 Q130 45 140 50 T160 50 T180 50" fill="white" opacity="0.8"/>
</svg> 