<?xml version="1.0" encoding="UTF-8"?>
<svg viewBox="0 0 200 200" xmlns="http://www.w3.org/2000/svg">
  <!-- Ciel nocturne -->
  <defs>
    <linearGradient id="skyGradient" x1="0" y1="0" x2="0" y2="1">
      <stop offset="0%" stop-color="#1a2f38"/>
      <stop offset="100%" stop-color="#2d4c59"/>
    </linearGradient>
  </defs>
  <rect width="200" height="200" fill="url(#skyGradient)"/>

  <!-- Lune -->
  <circle cx="150" cy="40" r="20" fill="#e1e1e1"/>
  <circle cx="140" cy="35" r="5" fill="#c4c4c4"/>

  <!-- Arbres mystérieux -->
  <g transform="translate(30, 80)">
    <path d="M0 100 L15 0 L30 100 Z" fill="#1a472a"/>
    <rect x="10" y="100" width="10" height="20" fill="#5d4037"/>
  </g>

  <g transform="translate(80, 60)">
    <path d="M0 120 L20 0 L40 120 Z" fill="#2d5a3f"/>
    <rect x="15" y="120" width="10" height="20" fill="#5d4037"/>
  </g>

  <g transform="translate(140, 90)">
    <path d="M0 90 L15 0 L30 90 Z" fill="#1a472a"/>
    <rect x="10" y="90" width="10" height="20" fill="#5d4037"/>
  </g>

  <!-- Brume -->
  <path d="M0 150 Q50 140 100 150 T200 150" fill="#ffffff20"/>
  <path d="M0 160 Q50 150 100 160 T200 160" fill="#ffffff15"/>
  <path d="M0 170 Q50 160 100 170 T200 170" fill="#ffffff10"/>

  <!-- Étoiles -->
  <circle cx="20" cy="30" r="1" fill="white"/>
  <circle cx="50" cy="20" r="1" fill="white"/>
  <circle cx="80" cy="40" r="1" fill="white"/>
  <circle cx="120" cy="25" r="1" fill="white"/>
  <circle cx="180" cy="35" r="1" fill="white"/>
</svg> 