<?xml version="1.0" encoding="UTF-8"?>
<svg viewBox="0 0 200 200" xmlns="http://www.w3.org/2000/svg">
  <!-- Fond de la grotte -->
  <defs>
    <linearGradient id="caveBg" x1="0" y1="0" x2="0" y2="1">
      <stop offset="0%" stop-color="#2A1B3D"/>
      <stop offset="100%" stop-color="#44318D"/>
    </linearGradient>
    <radialGradient id="crystalGlow" cx="0.5" cy="0.5" r="0.5">
      <stop offset="0%" stop-color="#E6E6FA" stop-opacity="0.6"/>
      <stop offset="100%" stop-color="#E6E6FA" stop-opacity="0"/>
    </radialGradient>
  </defs>
  <rect width="200" height="200" fill="url(#caveBg)"/>

  <!-- Parois de la grotte -->
  <path d="M0 0 L50 20 L100 0 L150 30 L200 0 L200 200 L0 200 Z" fill="#1A0F2E"/>
  <path d="M0 50 C50 30 150 70 200 40" stroke="#2A1B3D" stroke-width="5" fill="none"/>
  <path d="M0 100 C50 80 150 120 200 90" stroke="#2A1B3D" stroke-width="5" fill="none"/>

  <!-- Stalactites -->
  <path d="M20 0 L30 40 L40 0" fill="#44318D"/>
  <path d="M80 0 L90 30 L100 0" fill="#44318D"/>
  <path d="M140 0 L150 50 L160 0" fill="#44318D"/>

  <!-- Stalagmites -->
  <path d="M50 200 L60 160 L70 200" fill="#44318D"/>
  <path d="M110 200 L120 150 L130 200" fill="#44318D"/>
  <path d="M170 200 L180 170 L190 200" fill="#44318D"/>

  <!-- Cristaux lumineux -->
  <g transform="translate(40, 80)">
    <path d="M0 0 L10 -20 L20 0 L10 20 Z" fill="#9370DB"/>
    <circle cx="10" cy="0" r="15" fill="url(#crystalGlow)"/>
  </g>

  <g transform="translate(100, 60)">
    <path d="M0 0 L15 -30 L30 0 L15 30 Z" fill="#8A2BE2"/>
    <circle cx="15" cy="0" r="20" fill="url(#crystalGlow)"/>
  </g>

  <g transform="translate(160, 100)">
    <path d="M0 0 L10 -25 L20 0 L10 25 Z" fill="#9370DB"/>
    <circle cx="10" cy="0" r="15" fill="url(#crystalGlow)"/>
  </g>

  <!-- Petits cristaux brillants -->
  <circle cx="30" cy="120" r="2" fill="#E6E6FA"/>
  <circle cx="70" cy="150" r="2" fill="#E6E6FA"/>
  <circle cx="140" cy="70" r="2" fill="#E6E6FA"/>
  <circle cx="180" cy="130" r="2" fill="#E6E6FA"/>

  <!-- Brume mystérieuse -->
  <path d="M0 160 Q50 150 100 160 T200 160" fill="#E6E6FA" opacity="0.1"/>
  <path d="M0 180 Q50 170 100 180 T200 180" fill="#E6E6FA" opacity="0.1"/>
</svg> 